<svg width="481" height="449" viewBox="0 0 481 449" fill="none" xmlns="http://www.w3.org/2000/svg">
<g clip-path="url(#clip0_709_2183)">
<path fill-rule="evenodd" clip-rule="evenodd" d="M313.935 175.438L305.083 194.09L318.034 210.168L362.111 264.886L292.432 255.849L271.957 253.194L260.668 270.48L222.248 329.309L209.311 260.247L205.509 239.954L185.581 234.559L117.759 216.199L179.443 182.553L197.568 172.667L196.54 152.047L193.044 81.8705L244.104 130.138L259.108 144.321L278.401 136.972L344.062 111.961L313.935 175.438ZM203.733 46.7213L266.695 106.24L347.662 75.3993C369.823 66.958 390.962 89.8412 380.794 111.265L343.645 189.538L397.996 257.012C412.873 275.48 397.642 302.655 374.124 299.605L288.202 288.462L240.827 361.004C227.86 380.859 197.307 374.771 192.941 351.462L176.988 266.302L93.3563 243.662C70.4659 237.465 66.8144 206.527 87.6331 195.171L163.696 153.683L159.384 67.1488C158.204 43.4638 186.5 30.4306 203.733 46.7213Z" fill="#7150D3" fill-opacity="0.05"/>
</g>
<defs>
<clipPath id="clip0_709_2183">
<rect width="350.78" height="350.78" fill="white" transform="translate(257.663 -47) rotate(47.2687)"/>
</clipPath>
</defs>
</svg>
